# xmcd
#
# Track frame offsets: 
#        150
#        3480
#        23497
#        43497
#        64712
#        83300
#        100315
#        115975
#        136180
#        140157
#        165347
#        190780
#        208007
#        226017
#        240247
#
# Disc length: 3439 seconds
#
# Revision: 5
# Processed by: cddbd v1.5.2PL0 Copyright (c) Steve Scherf et al.
# Submitted via: ExactAudioCopyFreeDBPlugin 1.0
#
DISCID=b70d6d0f
DTITLE=Usher - 8701
DYEAR=2001
DGENRE=R&B
TTITLE0=Intro-lude 8701
TTITLE1=U Remind Me
TTITLE2=I Don't Know (feat. P. Diddy)
TTITLE3=Twork It Out
TTITLE4=U Got It Bad
TTITLE5=If I Want To
TTITLE6=I Can't Let U Go (feat. Jermaine Dupri)
TTITLE7=U Don't Have To Call
TTITLE8=Without U (Interlude)
TTITLE9=Can U Help Me
TTITLE10=How Do I Say
TTITLE11=Hottest Thing
TTITLE12=Good Ol' Ghetto
TTITLE13=U-Turn
TTITLE14=U R The One
EXTD=
EXTT0=
EXTT1=
EXTT2=
EXTT3=
EXTT4=
EXTT5=
EXTT6=
EXTT7=
EXTT8=
EXTT9=
EXTT10=
EXTT11=
EXTT12=
EXTT13=
EXTT14=
PLAYORDER=
